<?xml version="1.0" encoding="utf-8" ?><svg xmlns="http://www.w3.org/2000/svg" xmlns:xlink="http://www.w3.org/1999/xlink" width="1024" height="1024" viewBox="0 0 1024 1024"><path fill="#161617" d="M655.222 184.782C662.738 184.055 670.963 185.847 678.777 185.747C728.579 185.142 779.201 194.612 810.119 237.251C832.763 268.48 837.055 298.901 836.73 336.522C836.668 343.799 837.634 351.912 837.647 359.5L837.596 587.827L837.601 654.813C837.599 686.249 838.103 709.761 830.265 740.583C815.16 799.98 765.413 831.485 706.269 833.92C694.843 834.39 683.196 833.999 671.838 834L607.503 833.998L368.25 833.995C323.564 834.072 280.165 837.368 241.393 810.644C211.072 789.745 193.859 758.466 189.135 722.55C185.982 698.581 187.003 673.763 187.015 649.667L187.021 533.097L187.01 387.163L187.111 341.899C187.357 303.996 188.515 271.356 211.597 239.046C226.916 217.995 248.563 202.392 273.378 194.517C299.428 186.296 335.556 184.112 362.87 185.041C384.685 185.782 405.754 186.002 427.663 185.992L581.052 185.984C600.256 186.004 619.615 186.512 638.76 185.133C643.571 184.787 650.749 185.654 655.222 184.782ZM605.063 774.188C606.27 773.017 607.228 772.406 607.477 770.793C606.599 769.427 607.196 769.836 605.894 769.204L605.437 770.054C604.781 771.257 604.402 771.721 603.564 772.795L603.791 773.665L605.063 774.188Z"/><path fill="#FEFEFE" d="M316.991 407.081C325.229 405.95 333.707 412.367 340.95 416.372L372.788 433.872L403.939 451.126C409.647 454.257 415.462 457.615 421.13 460.705C431.856 466.552 433.036 485.611 422.964 491.975C412.985 498.281 402.136 503.538 391.784 509.033L333.738 540.095C328.125 543.234 324.422 545.437 317.665 543.883C308.137 541.567 303.879 524.935 312.439 519.175C315.943 516.707 319.782 514.71 323.586 512.723C346.275 500.869 368.589 488.221 391.24 476.315C374.442 466.919 357.578 457.638 340.652 448.475C332.08 443.782 323.695 439.223 315.309 434.197C304.886 427.951 306.463 412.133 316.991 407.081Z"/><path fill="#FEFEFE" d="M698.796 407.533C704.739 406.99 710.565 408.234 713.038 413.979C719.463 428.901 709.782 433.956 699.421 439.227C676.173 451.053 654.01 464.552 630.981 476.233C648.566 486.837 668.107 495.849 685.997 506.102C691.247 509.111 710.78 518.247 712.993 523.292C718.31 535.416 709.388 548.501 694.782 543.121L628.016 507.149C618.812 502.177 607.717 496.801 599.007 491.079C597.204 489.894 595.137 486.114 594.352 484.019C592.228 478.433 592.498 472.218 595.099 466.838C598.36 459.981 614.443 452.796 621.628 448.878L661.076 427.452C669.084 423.14 691.833 409.94 698.796 407.533Z"/><path fill="#FEFEFE" d="M499.429 518.616C505.075 518.517 521.404 517.554 525.427 519.627C537.271 525.728 535.911 543.614 522.194 547.489C507.184 546.875 481.276 552.508 489.315 525.503C490.552 521.346 495.57 519.34 499.429 518.616Z"/><path fill="#FEFEFE" d="M438.599 523.139C448.953 522.671 464.069 522.734 459.634 539.929C458.558 544.101 454.409 546.571 450.539 548.164C424.128 551.775 423.082 527.847 438.599 523.139Z"/><path fill="#FEFEFE" d="M575.61 523.223C580.156 523.077 584.658 523.093 588.462 526.142C593.785 530.41 594.667 539.255 589.972 544.36C586.544 548.086 583.7 548.591 578.925 548.797C574.289 549.018 570.683 549.052 566.686 546.138C561.139 542.093 559.853 532.812 564.293 527.495C567.436 523.731 571.019 523.474 575.61 523.223Z"/><path fill="#212122" d="M348.419 216.608C350.066 217.355 349.929 217.56 349.997 219.18C349.352 220.695 347.566 222.708 345.872 222.503C344.423 221.922 343.626 221.868 343.047 220.489C346.38 218.522 346.73 221.637 348.419 216.608Z"/><path fill="#212122" d="M460.408 275.157L461.729 275.465C462.694 276.652 462.438 275.97 462.354 277.635C461.156 279.137 460.657 279.343 459.003 280.377L458.379 280.76L458.236 282.7C456.871 282.051 456.963 282.11 456.099 280.864L456.32 279.724C457.612 278.865 458.864 277.95 460.333 277.418L460.408 275.157Z"/><path fill="#212122" d="M530.916 228.363L532.05 229.223C533.367 229.033 534.064 228.735 535.184 229.353C535.054 231.217 535.097 230.637 533.925 232.388L533.878 233.262L533.072 233.422C531.56 232.415 530.648 231.425 530.127 229.637L530.916 228.363Z"/><path fill="#212122" d="M753.153 376.052C756.179 376.394 759.882 375.71 761.703 376.804L761.796 377.796C758.292 377.324 756.031 379.11 753.356 377.452L753.153 376.052Z"/><path fill="#212122" d="M747.486 297.402L749.186 297.573C750.183 298.875 751.531 300.612 751.766 302.198C750.346 302.805 751.114 302.704 749.343 302.008C747.53 301.217 749.491 302.599 747.301 302.422C748.246 299.098 748.537 299.999 747.486 297.402Z"/><path fill="#212122" d="M604.429 550.469C604.674 550.402 605.492 550.449 605.789 550.454C607.023 551.234 608.829 552.927 609.334 554.345C606.815 554.053 607.645 553.799 605.646 554.857C603.559 553.955 605.135 555.626 603.069 554.451L603.273 553.62C604.287 553.511 605.167 553.458 606.186 553.405L606.351 552.776L605.71 551.715L603.859 551.358L604.429 550.469Z"/><path fill="#212122" d="M252.868 346.46C253.064 346.839 253.259 347.219 253.454 347.599C252.248 348.337 252.577 347.825 252.125 348.935C253.703 351.355 252.548 348.199 254.53 350.003C254.095 351.203 254.127 351.267 253.378 352.278C252.201 351.888 251.157 350.663 250.338 349.79C250.159 347.931 249.994 348.782 250.807 347.137L252.868 346.46Z"/><path fill="#212122" d="M310.85 332.873C314.224 335.064 312.327 336.251 312.957 339.687C311.752 339.408 311.821 339.454 310.831 338.722C310.639 337.72 310.599 333.916 310.85 332.873Z"/><path fill="#212122" d="M537.608 240.23C538.411 239.81 537.927 239.968 539.11 239.939L539.327 240.768C538.792 242.946 538.168 243.415 536.694 245.218C535.342 243.901 535.611 244.633 535.227 243.091C536.631 242.04 536.862 241.919 537.608 240.23Z"/><path fill="#212122" d="M428.531 287.724L429.296 287.866L429.479 288.487L428.754 289.487C425.731 290.659 427.046 290.451 423.575 289.972C423.071 289.406 423.332 289.781 422.962 288.744C425.225 287.092 424.382 289.907 428.531 287.724Z"/><path fill="#212122" d="M382.362 232.392C384.41 233.104 385.972 232.456 387.14 233.484L386.933 234.704C384.841 235.455 384.506 235.77 382.457 235.19C381.636 233.529 381.771 234.42 382.362 232.392Z"/><path fill="#212122" d="M447.393 262.149L448.667 262.197L449.309 263.005C449.232 264.709 448.489 265.555 447.583 267.018L447.044 267.54L446.422 267.236C446.466 264.608 446.823 264.59 447.393 262.149Z"/><path fill="#212122" d="M775.279 275.814C777.317 275.664 778.027 275.936 779.17 277.659C779.371 279.927 779.491 279.051 777.811 281.323C777.336 281.364 777.688 281.371 776.895 280.8C777.076 277.756 776.904 278.211 775.279 275.814Z"/><path fill="#212122" d="M666.493 370.66C667.976 370.974 667.499 370.681 668.548 371.644C668.92 374.256 667.585 375.438 665.605 376.817C664.654 376.319 664.468 376.151 663.592 375.52L663.859 374.912L667.05 374.028C666.598 372.641 666.537 372.122 666.493 370.66Z"/><path fill="#212122" d="M405.729 303.25C406.515 303.721 406.192 303.39 406.64 304.298C405.987 305.221 405.305 306.44 405.949 307.482L406.62 307.78L406.137 308.675C404.49 309.034 405.237 309.138 403.806 308.525C403.063 306.027 404.227 305.197 405.729 303.25Z"/><path fill="#212122" d="M304.69 336.477C306.244 337.306 306.62 337.005 308.404 337.807C309.197 339.04 308.929 339.876 308.79 341.365L307.387 341.371C306.802 339.832 305.957 338.931 304.673 337.939L304.69 336.477Z"/><path fill="#212122" d="M435.823 273.12C438.12 273.61 437.725 273.513 438.804 274.944C438.82 277.505 438.993 276.525 437.694 278.851C434.607 277.554 437.595 277.374 435.823 273.12Z"/><path fill="#212122" d="M344.013 258.511C346.234 259.061 345.813 258.957 346.855 260.465C346.96 262.544 346.765 262.667 345.638 264.537L345.245 264.746L344.598 263.75C344.882 261.242 344.992 260.806 344.013 258.511Z"/><path fill="#212122" d="M412.355 312.742C415.483 315.459 412.093 313.54 413.437 318.97C412.303 319.122 412.867 319.17 411.747 318.804C410.706 316.384 410.917 314.914 412.355 312.742Z"/><path fill="#212122" d="M781.65 378.893L782.692 379.494L782.698 380.381C780.681 382.285 780.194 382.623 779.204 385.177L778.301 384.337C778.314 382.05 780.106 380.533 781.65 378.893Z"/><path fill="#212122" fill-opacity="0.98823529" d="M605.894 769.204C607.196 769.836 606.599 769.427 607.477 770.793C607.228 772.406 606.27 773.017 605.063 774.188L603.791 773.665L603.564 772.795C604.402 771.721 604.781 771.257 605.437 770.054L605.894 769.204Z"/><path fill="#212122" d="M788.749 402.784C791.511 404.025 790.489 403.608 793.865 403.379L794.25 404.898C792.166 405.782 789.753 406.126 788.113 404.314L788.749 402.784Z"/><path fill="#212122" d="M425.817 319.025L427.201 319.737C428.575 319.578 429.333 319.553 430.691 319.527L430.957 320.221L429.883 320.381C428.974 321.13 429.37 320.69 428.944 321.947C427.764 322.685 428.39 322.528 426.992 322.244C426.112 320.716 426.17 320.77 425.817 319.025Z"/><path fill="#212122" d="M323.81 222.314C325.858 222.819 325.71 222.898 326.716 224.474C326.744 226.891 327.061 225.826 325.83 227.816L324.861 227.49C324.605 226.521 323.778 223.111 323.81 222.314Z"/><path fill="#212122" d="M371.931 245.963C372.638 246.413 372.463 246.341 373.013 247.027C371.921 248.903 371.725 249.041 371.689 251.128C370.055 250.847 370.193 250.765 369.579 249.452C370.046 247.458 370.308 247.389 371.931 245.963Z"/><path fill="#212122" d="M321.012 288.801C322.869 289.706 322.209 289.044 323.157 290.762C322.958 292.628 322.578 292.842 321.343 294.238L320.578 294.078C319.123 292.6 321.356 293.703 321.012 288.801Z"/><path fill="#212122" d="M771.726 473.03L773.806 473.403C775.007 474.429 774.625 473.788 774.865 475.461C774.106 477.316 774.051 477.218 772.434 478.515C771.477 477.986 771.81 478.351 771.357 477.496C772.543 476.381 772.496 476.485 773.079 474.973L771.726 473.03Z"/><path fill="#212122" d="M405.295 274.785C406.815 274.82 406.234 274.506 407.193 275.506C406.81 276.9 405.852 277.502 404.746 278.497L403.764 278.686L403.217 277.968C403.537 276.309 404.098 275.982 405.295 274.785Z"/><path fill="#212122" d="M308.147 284.243C309.383 284.906 308.942 284.446 309.4 285.738C308.545 287.354 308.599 286.958 306.856 288.112C306.377 288.036 305.893 287.726 305.417 287.49L305.369 286.781C306.442 285.671 306.987 285.207 308.147 284.243Z"/><path fill="#212122" d="M526.239 214.549C527.948 214.394 530.333 213.908 531.492 215.297L531.172 216.679L530.196 216.301C527.402 216.951 527.66 216.607 526.239 214.549Z"/><path fill="#212122" d="M724.619 246.334L725.267 247.33C724.785 249.137 724.335 250.776 722.807 251.842L721.763 250.61C722.079 248.796 723.244 247.495 724.619 246.334Z"/><path fill="#212122" d="M535.666 259.111L536.694 259.152L537.116 259.82C536.606 261.119 535.611 261.683 534.489 262.575C533.221 262.31 533.743 262.646 532.822 261.686C533.611 260.317 534.294 260.099 535.666 259.111Z"/><path fill="#212122" d="M367.589 296.316L368.494 296.471L368.917 297.225C368.347 298.929 368.067 299.978 367.667 301.731C365.634 298.521 365.223 298.813 367.589 296.316Z"/><path fill="#212122" d="M533.947 478.858C536.614 480.013 536.825 479.603 539.653 479.594L539.583 480.308L537.889 481.383L537.248 481.857C536.068 481.25 534.893 480.648 533.652 480.175L533.947 478.858Z"/><path fill="#212122" d="M306.061 329.67L307.716 330.024L308.582 331.392C308.878 333.575 308.658 333.777 307.75 335.895C305.439 334.891 306.9 334.41 307.105 331.997C306.684 331.058 306.335 330.282 306.061 329.67Z"/><path fill="#212122" d="M811.473 488.298C812.026 488.799 811.757 488.456 812.081 489.457C810.784 492.769 810.897 492.358 808.491 494.768C808.301 494.535 808.235 493.894 808.161 493.531C809.673 491.763 809.366 490.814 811.473 488.298Z"/><path fill="#212122" d="M323.963 685.951C326.731 686.228 327.801 685.778 328.681 688.447C326.167 688.436 325.815 688.881 324.159 687.72L323.963 685.951Z"/><path fill="#212122" d="M261.581 381.747C262.515 382.436 262.102 382.013 262.792 383.041C261.92 384.934 261.792 385.333 261.717 387.407C260.611 386.712 260.67 386.426 260.099 385.19C260.273 383.021 260.166 383.744 261.581 381.747Z"/><path fill="#212122" d="M643.399 399.209C647.241 400.017 643.022 399.961 647.168 403.669C645.761 404.193 645.489 403.935 644.322 403.324C643.272 401.618 643.404 401.31 643.399 399.209Z"/><path fill="#212122" d="M205.93 485.186L206.647 485.773C206.747 487.656 207.313 487.97 208.715 489.174L208.524 489.657L207.785 489.057C206.615 489.086 205.918 489.38 204.598 489.296C205.446 487.616 205.507 487.491 205.854 485.617L205.93 485.186Z"/><path fill="#212122" d="M759.768 402.876C762.621 403.934 762.716 403.237 765.137 403.774L765.233 404.552L763.883 405.395C761.223 405.389 760.478 405.528 759.768 402.876Z"/><path fill="#212122" d="M783.506 367.359C786.67 368.691 786.518 369.684 785.902 372.416C784.941 371.069 783.862 369.983 782.796 368.677L783.506 367.359Z"/><path fill="#212122" d="M469.97 297.234L470.714 298.152C470.082 300.457 469.756 301.084 468.645 303.22L467.747 302.054C467.887 300.295 468.919 298.648 469.97 297.234Z"/><path fill="#212122" d="M740.893 323.28C741.312 323.395 741.882 323.684 742.299 323.871C742.948 325.456 742.314 326.693 741.817 328.421C741.167 328.053 741.115 327.95 740.546 327.459C740.576 325.868 740.702 324.834 740.893 323.28Z"/><path fill="#212122" d="M321.359 309.82C322.915 310.611 322.353 310.046 323.17 311.509C322.987 313.113 322.112 313.66 320.929 314.818C319.053 311.418 321.082 314.948 321.359 309.82Z"/><path fill="#212122" d="M293.813 303.348L294.5 304.27C294.201 306.562 294.158 306.767 293.284 308.884C291.912 305.532 291.558 305.802 293.813 303.348Z"/><path fill="#212122" d="M454.206 329.246L455.707 329.768C456.222 331.183 455.572 333.117 455.227 334.691C453.557 332.762 454.124 332.391 454.206 329.246Z"/><path fill="#212122" d="M360.55 618.198C361.822 618.672 361.725 618.665 362.612 619.715C363.069 621.426 362.72 621.967 362.174 623.65C360.991 622.312 360.79 619.936 360.55 618.198Z"/><path fill="#212122" d="M430.003 403.053C430.655 403.077 430.276 403 431.074 403.502C430.432 404.779 429.157 405.348 427.83 406.261C427.137 406.229 427.54 406.323 426.722 405.702C427.47 404.326 428.483 404.039 430.003 403.053Z"/><path fill="#212122" d="M733.934 427.118L734.964 427.412L735.267 428.133C734.139 429.203 733.56 429.174 731.988 429.712L731.065 429.47C731.838 428.023 732.3 428.118 733.934 427.118Z"/><path fill="#212122" d="M259.566 343.693L260.883 344.58C260.918 346.046 260.047 346.81 259.106 348.327L258.092 347.67C258.563 346.233 259 345.096 259.566 343.693Z"/><path fill="#212122" d="M285.114 294.359C285.685 294.707 285.335 294.453 286.044 295.263C285.622 296.787 284.71 297.482 283.601 298.639L283.102 297.464C283.369 295.805 283.766 295.877 285.114 294.359Z"/><path fill="#212122" d="M241.751 342.062L242.38 342.187C242.379 344.055 242.372 344.536 242.034 346.356L240.249 345.819L239.99 345.094C240.7 343.995 241.135 343.201 241.751 342.062Z"/><path fill="#212122" d="M421.042 431.818C421.674 432.074 421.306 431.856 421.943 432.728C421.72 434.126 420.581 435.028 419.564 436.127C418.897 435.665 419.255 435.99 418.644 435.009C419.505 433.68 420.053 433.009 421.042 431.818Z"/><path fill="#212122" d="M229.69 338.106C230.193 338.099 229.829 338.075 230.718 338.477C230.471 339.747 229.323 340.534 228.247 341.675L227.147 341.68C227.077 340.667 228.812 339.115 229.69 338.106Z"/><path fill="#212122" d="M307.765 292.877C308.06 294.509 308.222 293.781 307.661 295.165C306.163 295.863 305.223 296.156 303.677 296.654C303.146 294.695 305.58 295.08 307.765 292.877Z"/><path fill="#212122" d="M648.229 385.409C648.814 385.484 648.492 385.369 649.075 385.99C648.269 387.844 648.103 388.309 647.743 390.309L647.662 390.775C646.469 389.354 646.756 390.12 646.455 388.528C647.227 387.541 647.425 387.322 647.902 386.2L648.229 385.409Z"/><path fill="#212122" d="M783.605 560.578L784.049 560.27C786.257 561.476 785.909 561.124 788.209 560.367L788.648 560.894C787.585 561.928 786.573 561.912 785.259 561.994C783.728 561.278 784.142 561.836 783.605 560.578Z"/><path fill="#212122" d="M249.462 408.244C249.732 408.474 250.101 408.988 250.34 409.29C250.003 410.508 249.851 411.022 249.715 412.288L249.623 413.195C247.176 411.63 248.182 410.034 249.462 408.244Z"/><path fill="#212122" d="M289.6 479.779C290.73 480.201 290.202 479.901 291.019 481.003C290.897 482.446 289.969 483.265 289.025 484.44C288.766 484.203 288.506 483.965 288.247 483.728C289.379 481.919 289.477 481.848 289.6 479.779Z"/><path fill="#212122" d="M231.586 312.631L232.221 313.037C231.778 314.506 230.896 314.686 229.333 315.837C228.789 315.757 229.148 315.855 228.402 315.223C229.084 313.835 230.036 313.621 231.586 312.631Z"/><path fill="#212122" d="M655.449 369.392C656.842 370.692 655.73 372.481 655.244 374.202L654.17 373.316C653.962 371.649 654.574 371.216 655.449 369.392Z"/><path fill="#212122" d="M554.138 540.605C555.585 541.018 555.514 540.943 556.627 541.937L556.67 542.712L555.924 542.175C554.304 542.78 554.297 542.884 552.506 542.77L552.474 542.047L554.138 540.605Z"/><path fill="#212122" d="M312.05 485.397L312.789 485.834C313.028 487.413 312.32 488.58 311.694 490.106L310.866 489.791L310.554 489.04C311.454 487.502 311.665 487.12 312.05 485.397Z"/><path fill="#212122" d="M259.547 419.865C260.597 420.835 261.643 421.638 262.761 422.521L262.7 423.939C261.046 422.927 260.474 422.864 258.946 421.512L259.547 419.865Z"/><path fill="#212122" d="M262.285 549.88C262.45 550.085 262.661 550.686 262.775 550.965C261.207 552.735 261.036 552.817 260.419 555.027C259.336 551.791 259.997 552.051 262.285 549.88Z"/><path fill="#212122" d="M434.696 445.333L435.23 446.055C435.312 447.606 434.339 448.775 433.504 450.182C432.706 449.251 432.981 449.793 432.718 448.538C433.515 447.367 434 446.546 434.696 445.333Z"/><path fill="#212122" d="M607.853 534.064C609.518 535.157 609.039 534.443 609.653 536.027C609.001 537.264 608.799 537.807 608.485 539.169L607.713 538.491C608.438 536.287 608.522 536.191 607.853 534.064Z"/><path fill="#212122" d="M716.976 597.779C717.517 598.791 717.967 600.582 718.32 601.745L717.721 602.408L716.875 602.383C716.577 600.174 716.615 600.011 716.976 597.779Z"/><path fill="#212122" d="M704.265 593.767L704.843 594.305C704.833 595.576 703.346 597.618 702.742 599.204C701.971 598.488 702.208 598.94 702.113 597.808C703.135 596.263 703.593 595.484 704.265 593.767Z"/><path fill="#212122" d="M248.923 551.591C251.723 552.184 252.36 551.825 252.717 554.645C250.811 553.808 249.652 553.586 248.923 551.591Z"/><path fill="#212122" d="M226.861 465.192C227.287 465.001 227 465.087 227.757 465.154L229.27 468.716C227.427 467.738 226.835 467.196 226.861 465.192Z"/><path fill="#212122" d="M244.957 425.322C245.318 425.474 245.788 425.8 246.138 426.018C246.039 427.337 245.973 427.81 246.153 429.128L246.281 430.007C245.514 429.722 245.426 429.627 244.718 429.209C244.86 427.784 244.911 426.737 244.957 425.322Z"/><path fill="#212122" d="M200.656 470.743C201.468 470.915 201.897 471.103 202.678 471.381C203.605 472.963 203.466 472.157 203.291 473.841L202.957 473.436L202.199 472.46C200.939 472.597 201.257 472.754 200.23 472.347L200.656 470.743Z"/><path fill="#212122" d="M724.564 566.5C725.373 566.253 726.736 566.963 727.467 567.309L727.421 568.443L727.159 568.536L724.679 567.348L724.564 566.5Z"/><path fill="#212122" d="M230.169 572.83L230.794 573.756C229.846 575.563 229.737 575.665 229.553 577.649L228.832 576.516C228.717 574.74 229.195 574.33 230.169 572.83Z"/><path fill="#212122" d="M247.192 556.562L247.675 556.257C249.203 556.827 249.085 556.82 250.117 558.11C248.284 558.239 249.209 558.336 247.303 557.386L247.192 556.562Z"/><path fill="#212122" d="M260.037 644.453L261.356 644.292C262.295 645.742 261.878 646.169 261.776 648.337C261.907 648.579 259.91 644.028 260.037 644.453Z"/><path fill="#212122" d="M708.866 600.786L709.699 600.396L710.624 603.306L709.981 603.467C708.731 602.076 709.195 602.89 708.866 600.786Z"/><path fill="#212122" d="M454.967 554.555C455.317 554.948 455.135 554.66 455.151 555.559C454.075 556.123 452.994 556.678 451.907 557.222L451.465 556.776C452.364 555.817 453.778 555.195 454.967 554.555Z"/><path fill="#212122" d="M410.33 574.42L410.69 574.92C410.684 576.445 410.248 576.345 408.867 577.855L408.477 577.251C408.543 575.742 408.947 575.865 410.33 574.42Z"/><path fill="#212122" d="M371.103 569.033L371.509 568.837L373.7 569.679L373.959 570.479L373.481 570.705L371.33 569.851L371.103 569.033Z"/></svg>