<?xml version="1.0" encoding="UTF-8"?>
<svg width="1024" height="1024" viewBox="0 0 1024 1024" fill="none" xmlns="http://www.w3.org/2000/svg">
  <defs>
    <linearGradient id="bg" x1="136" y1="120" x2="894" y2="916" gradientUnits="userSpaceOnUse">
      <stop offset="0%" stop-color="#172033"/>
      <stop offset="45%" stop-color="#0D1320"/>
      <stop offset="100%" stop-color="#080C14"/>
    </linearGradient>
    <linearGradient id="rim" x1="176" y1="126" x2="870" y2="904" gradientUnits="userSpaceOnUse">
      <stop offset="0%" stop-color="#D5B5FF" stop-opacity="0.55"/>
      <stop offset="45%" stop-color="#7CC6FF" stop-opacity="0.16"/>
      <stop offset="100%" stop-color="#4FD6BE" stop-opacity="0.24"/>
    </linearGradient>
    <linearGradient id="panel" x1="512" y1="196" x2="512" y2="832" gradientUnits="userSpaceOnUse">
      <stop offset="0%" stop-color="#111827"/>
      <stop offset="100%" stop-color="#090D16"/>
    </linearGradient>
    <linearGradient id="titlebar" x1="210" y1="216" x2="812" y2="284" gradientUnits="userSpaceOnUse">
      <stop offset="0%" stop-color="#1F2A3F"/>
      <stop offset="100%" stop-color="#141B2A"/>
    </linearGradient>
    <linearGradient id="glyph" x1="328" y1="410" x2="640" y2="640" gradientUnits="userSpaceOnUse">
      <stop offset="0%" stop-color="#FFFFFF"/>
      <stop offset="100%" stop-color="#EEF5FF"/>
    </linearGradient>
    <linearGradient id="cursor" x1="606" y1="436" x2="664" y2="626" gradientUnits="userSpaceOnUse">
      <stop offset="0%" stop-color="#C9A6FF"/>
      <stop offset="100%" stop-color="#7CC6FF"/>
    </linearGradient>
    <radialGradient id="glow" cx="0" cy="0" r="1" gradientUnits="userSpaceOnUse" gradientTransform="translate(540 534) rotate(180) scale(230 190)">
      <stop offset="0%" stop-color="#B58EFF" stop-opacity="0.30"/>
      <stop offset="100%" stop-color="#B58EFF" stop-opacity="0"/>
    </radialGradient>
    <filter id="shadow" x="76" y="94" width="872" height="888" filterUnits="userSpaceOnUse" color-interpolation-filters="sRGB">
      <feOffset dy="28"/>
      <feGaussianBlur stdDeviation="28"/>
      <feColorMatrix type="matrix" values="0 0 0 0 0.01 0 0 0 0 0.03 0 0 0 0 0.08 0 0 0 0.34 0"/>
    </filter>
  </defs>

  <g filter="url(#shadow)">
    <rect x="108" y="108" width="808" height="808" rx="184" fill="url(#bg)"/>
  </g>
  <rect x="108" y="108" width="808" height="808" rx="184" fill="url(#bg)"/>
  <rect x="108.5" y="108.5" width="807" height="807" rx="183.5" stroke="url(#rim)"/>

  <rect x="176" y="176" width="672" height="672" rx="138" fill="url(#panel)"/>
  <rect x="176.75" y="176.75" width="670.5" height="670.5" rx="137.25" stroke="#FFFFFF" stroke-opacity="0.08" stroke-width="1.5"/>
  <rect x="176" y="176" width="672" height="118" rx="138" fill="url(#titlebar)"/>
  <path d="M176 246H848" stroke="#FFFFFF" stroke-opacity="0.08" stroke-width="2"/>

  <circle cx="250" cy="235" r="12" fill="#FF7A90" fill-opacity="0.95"/>
  <circle cx="286" cy="235" r="12" fill="#F6C177" fill-opacity="0.95"/>
  <circle cx="322" cy="235" r="12" fill="#62D196" fill-opacity="0.95"/>

  <rect x="398" y="222" width="228" height="24" rx="12" fill="#DDE7FF" fill-opacity="0.10"/>
  <rect x="220" y="350" width="182" height="18" rx="9" fill="#DDE7FF" fill-opacity="0.08"/>
  <rect x="220" y="392" width="112" height="18" rx="9" fill="#DDE7FF" fill-opacity="0.05"/>
  <rect x="220" y="434" width="154" height="18" rx="9" fill="#DDE7FF" fill-opacity="0.05"/>

  <ellipse cx="536" cy="530" rx="220" ry="166" fill="url(#glow)"/>

  <g stroke="url(#glyph)" stroke-width="46" stroke-linecap="round" stroke-linejoin="round">
    <polyline points="350,436 458,528 350,620"/>
  </g>
  <rect x="506" y="504" width="52" height="52" rx="12" fill="url(#glyph)"/>
  <rect x="586" y="428" width="74" height="194" rx="18" fill="url(#cursor)"/>
  <rect x="586" y="428" width="74" height="194" rx="18" stroke="#FFFFFF" stroke-opacity="0.18" stroke-width="1.5"/>

  <rect x="220" y="678" width="164" height="16" rx="8" fill="#4FD6BE" fill-opacity="0.24"/>
  <rect x="406" y="678" width="118" height="16" rx="8" fill="#7CC6FF" fill-opacity="0.18"/>
  <rect x="544" y="678" width="86" height="16" rx="8" fill="#D0AEFF" fill-opacity="0.20"/>
</svg>
